<svg width="80" height="80" viewBox="0 0 80 80" fill="none" xmlns="http://www.w3.org/2000/svg">
<path d="M39.3282 65.7703C46.0977 66.1688 52.2582 63.6492 58.0782 58.0789C63.6485 52.2586 66.1563 46.0789 65.7696 39.2779C64.7696 28.6369 57.5391 20.8869 42.5076 14.2079C35.8084 10.8563 30.3666 7.58685 25.6096 2.66895V2.67285C15.0786 6.75095 6.75063 15.0788 2.67163 25.6108C7.59353 30.3725 10.863 35.8099 14.1836 42.4629C20.8906 57.5409 28.6406 64.7209 39.3286 65.7719L39.3282 65.7703Z" fill="#484848"/>
<path d="M40.0002 1.92724e-05C36.0119 -0.00388673 32.0471 0.585959 28.2302 1.75002C32.57 5.96882 37.5505 8.92192 43.5822 11.93C59.4882 19.0003 67.1212 27.391 68.2702 39.09C68.7194 46.7111 65.9694 53.481 59.8796 59.84C53.9577 65.5119 47.6806 68.2814 40.7386 68.2814H39.18C27.391 67.1212 19 59.4884 11.91 43.5314C8.91002 37.5314 5.96862 32.5314 1.75002 28.2424V28.2385C0.585919 32.051 -0.00388078 36.0158 1.92149e-05 40.0005C0.00392521 50.6055 4.21882 60.7775 11.719 68.2775C19.2192 75.7775 29.391 79.9925 40 79.9925C50.605 79.9925 60.777 75.7777 68.281 68.2815C75.7771 60.7776 79.992 50.6055 79.992 40.0005C79.992 29.3915 75.7772 19.2195 68.277 11.7195C60.7768 4.21951 50.6052 0.00401927 40.0002 1.92724e-05Z" fill="#484848"/>
</svg>
